# xmcd
#
# Track frame offsets: 
#        150
#        14657
#        31249
#        41954
#        58764
#        75394
#        89706
#        102278
#        115600
#        131285
#        152917
#        165317
#        187407
#
# Disc length: 2681 seconds
#
# Revision: 0
# Processed by: cddbd v1.5.2PL0 Copyright (c) Steve Scherf et al.
# Submitted via: ExactAudioCopy v1.0b3
#
DISCID=a90a770d
DTITLE=Colin James - Colin James and The Little Big Band III
DYEAR=2006
DGENRE=Blues
TTITLE0=Reet Petite
TTITLE1=I'm Shakin'
TTITLE2=Where Y'At
TTITLE3=I Will Be There
TTITLE4=Lonely Avenue
TTITLE5=I Want You To Be My Baby
TTITLE6=That's Where It's At
TTITLE7=Please Baby Don't Do That
TTITLE8=No Buts, No Maybes
TTITLE9=That's What Love Is Made Of
TTITLE10=The Night Is Young (And You're So Fine)
TTITLE11=Feeling Good
TTITLE12=If You Need Me
EXTD=
EXTT0=
EXTT1=
EXTT2=
EXTT3=
EXTT4=
EXTT5=
EXTT6=
EXTT7=
EXTT8=
EXTT9=
EXTT10=
EXTT11=
EXTT12=
PLAYORDER=
